<?xml version="1.0" encoding="utf-8"?>
<!-- Generator: Adobe Illustrator 27.4.0, SVG Export Plug-In . SVG Version: 6.00 Build 0)  -->
<svg version="1.1" id="Layer_1" xmlns="http://www.w3.org/2000/svg" xmlns:xlink="http://www.w3.org/1999/xlink" x="0px" y="0px"
	 viewBox="0 0 602 342" style="enable-background:new 0 0 602 342;" xml:space="preserve">
<style type="text/css">
	.st0{fill:#0095BD;}
</style>
<g>
	<path class="st0" d="M263.44,331.55c-0.58,0-1.15-0.06-1.71-0.19c-3.02-0.68-5.04-3.12-5.55-6.67c-1.08-7.57-1.48-16.04-1.69-24.15
		c-0.28,1.12-0.58,2.23-0.94,3.33c-2.03,6.29-6.71,11.95-11.93,14.43c-2.59,1.23-5.24,1.66-7.79,1.29c-0.17,1.9-0.4,3.66-0.71,5.21
		c-0.63,3.15-3.28,5.21-6.6,5.08c-3.33-0.1-5.93-2.25-6.33-5.21l-0.02-0.13c-0.85-6.59-1.25-13.29-1.49-19.92
		c-2.84-4.36-7.65-8.15-11.71-6.36c-1.44,0.64-2.66,1.95-3.95,3.33c-2.14,2.3-4.56,4.89-8.58,4.89c-0.05,0-0.1,0-0.16,0
		c-2.79-0.04-5.48-1.43-7.38-3.81c-2.64-3.31-3.21-7.17-3.41-10.16c-0.11-1.64-1.32-2.56-2.32-2.86c-0.45-0.13-2.02-0.46-3.1,0.98
		c-0.07,0.1-0.14,0.2-0.2,0.3c-1.13,1.87-1.43,4.21-1.75,6.69c-0.15,1.16-0.3,2.35-0.55,3.54c-0.06,0.27-0.12,0.55-0.2,0.82
		c-0.86,3.09-3.62,5.16-6.89,5.16c-0.01,0-0.02,0-0.04,0c-3.32-0.02-6.11-2.14-6.96-5.29c-2.04-7.62-1.77-16.08,0.76-23.83
		c0.18-0.54,0.36-1.07,0.55-1.61c1.21-3.47,2.25-6.47,0.55-9.3c-0.64-1.07-1.97-1.57-3.01-1.15c-0.8,0.32-1.3,0.95-1.51,3.18
		c-0.18,1.9-1.17,3.63-2.72,4.75c-1.52,1.09-3.42,1.47-5.23,1.04c-1.99-0.47-5.07,0.68-6.22,2.92c-1.64,3.2-1.14,7.1-0.61,11.23
		c0.08,0.61,0.16,1.22,0.23,1.82c0.84,7.21-0.66,12.29-4.45,15.11c-3.52,2.62-7.94,2.38-11.84,2.18c-0.95-0.05-1.9-0.1-2.83-0.11
		c-2.79-0.04-5.69,1-7.12,2.5c-0.7,0.74-1.02,1.53-0.97,2.44l0.11,2l-3.99,0.22l-0.11-2c-0.11-2.01,0.61-3.88,2.08-5.42
		c2.18-2.28,6.05-3.74,9.91-3.74c0.05,0,0.09,0,0.14,0c0.99,0.01,1.99,0.06,3.01,0.12c3.54,0.18,6.88,0.36,9.24-1.39
		c3.19-2.37,3.32-7.53,2.86-11.44c-0.07-0.59-0.14-1.18-0.22-1.77c-0.56-4.34-1.19-9.27,1.02-13.57c1.9-3.69,6.7-5.93,10.7-4.98
		c0.69,0.16,1.39,0.02,1.98-0.4c0.61-0.44,1-1.12,1.07-1.87c0.14-1.52,0.48-5.08,3.98-6.5c2.87-1.17,6.28,0.03,7.94,2.79
		c2.67,4.44,1.15,8.81-0.2,12.68c-0.18,0.52-0.36,1.03-0.53,1.54c-2.3,7.02-2.55,14.68-0.7,21.55c0.46,1.7,1.91,2.32,3.11,2.32
		c0.01,0,0.01,0,0.02,0c1.17,0,2.58-0.59,3.03-2.23c0.05-0.19,0.1-0.37,0.14-0.56c0.21-1.04,0.35-2.11,0.5-3.24
		c0.36-2.78,0.73-5.66,2.3-8.25c0.13-0.22,0.27-0.43,0.43-0.63c1.75-2.33,4.6-3.26,7.44-2.42c2.94,0.87,4.97,3.4,5.17,6.43
		c0.24,3.58,1.02,6.02,2.54,7.93c1.15,1.44,2.72,2.28,4.32,2.3c0.03,0,0.06,0,0.09,0c2.18,0,3.58-1.38,5.66-3.62
		c1.51-1.62,3.07-3.3,5.27-4.27c4.6-2.03,9.38-0.03,13.12,3.53c-0.02-0.89-0.05-1.77-0.07-2.65c-0.35-13.66-0.72-27.78-4.05-41.12
		c-1.24-4.98-2.93-10.04-4.57-14.93c-3.94-11.76-8.01-23.93-6.44-36.51c1.38-11.06,7.18-21.37,15.93-28.29
		c4.36-3.45,9.32-5.98,14.11-8.42c2.81-1.44,5.72-2.92,8.44-4.56c5.43-3.28,12-8.59,14.05-15.87c-11.74-0.54-22.94-7.53-28.44-17.97
		l-0.65-1.24l0.94-1.04c5.07-5.6,13.76-7.45,20.67-4.39c2.13,0.95,4.02,2.27,5.83,3.55c2.32,1.64,4.52,3.19,7,3.78
		c1.99,0.48,4.13,0.33,6.4,0.18c1.83-0.12,3.73-0.25,5.66-0.06c6.33,0.65,11.29,4.51,16.08,8.25c3.09,2.41,6.28,4.9,9.72,6.37
		c4.6,1.98,9.67,2.25,15.03,2.53c3.11,0.17,6.34,0.33,9.49,0.87c6.67,1.13,12.95,4.91,15.99,9.63c2.1,3.27,2.69,6.93,1.72,10.58
		c-1.04,3.91-3.81,7.25-7.78,9.42c-5.8,3.17-12.04,3.36-18.07,3.54c-1.43,0.04-2.86,0.08-4.28,0.17
		c-7.78,0.46-18.91,2.49-27.76,9.59c-8.02,6.44-12.51,16.39-11.44,25.36c0.11,0.94,0.16,0.95,0.51,1.02
		c0.43,0.09,0.94-0.05,1.38-0.38c4.18-3.13,7.06-8.35,9.85-13.39c4.16-7.53,8.47-15.31,17.28-16.49c5.09-0.68,10.39,1.32,14.17,5.35
		c4.96,5.29,7.08,12.86,6.3,22.48c-1.42,17.75-11.83,34.39-27.17,43.45c-3.72,2.2-7.79,4.03-11.72,5.8
		c-8.93,4.02-17.36,7.82-21.98,15.52c-1.06,1.77-1.86,3.66-2.49,5.63c0.04,0.88,0.07,1.77,0.1,2.68c0.05,1.93,0.08,3.91,0.12,5.93
		c0.19,10.19,0.41,21.75,1.82,31.58c0.27,1.91,1.1,3.03,2.48,3.34c1.62,0.37,3.41-0.46,3.88-1.17c0.77-1.31,0.61-8.62,0.49-14.49
		c-0.12-5.97-0.27-12.74,0.18-18.56c0.96-12.49,3.54-23.03,25.51-25.53c2.13-0.24,4.12-0.08,5.9,0.48c7.04,2.22,7.26,8.87,7.4,12.84
		l1.11,32.7c0.05,1.49,1.1,2.14,2.07,2.25c0.98,0.12,2.16-0.28,2.56-1.72c2.45-8.84,2.07-19.07,1.67-29.9
		c-0.52-14.12-1.07-28.73,5-40.85c2.93-5.87,6.21-8.52,10.01-8.09c10.78,1.2,10.78,16.72,10.78,25.99c0,4.36,1.9,4.89,5.87,5.59
		c3.35,0.59,8.41,1.49,8.23,8.26c-0.09,3.52-0.83,6.95-1.53,10.26c-0.72,3.39-1.41,6.58-1.45,9.84c-0.08,5.81,3.18,12.15,8.22,12.83
		c3.02-2.24,4.59-6.81,6.11-11.24c2.1-6.11,4.48-13.03,11.4-13.55c7.5-0.58,8.67,4.4,9.44,7.68c0.77,3.29,1.24,5.28,5.59,5.28
		c0.01,0,0.02,0,0.04,0c4.99-0.01,5.08-1.84,5.24-5.14c0.11-2.37,0.25-5.33,3.1-6.76c5.66-2.86,9.93,1.82,13.7,5.94
		c2.86,3.13,5.82,6.38,9.13,6.49c2.44,0.07,3.85-1.49,4.66-2.82c1.89-3.11,1.98-7.82,0.23-10.94c-2.17-3.86-5.76-6.66-9.55-9.61
		c-1.98-1.54-4.03-3.14-5.89-4.92c-2.71-2.59-3.87-5.07-3.54-7.57c0.25-1.87,1.29-3.27,2.2-4.51c0.59-0.8,1.15-1.55,1.39-2.29
		c0.29-0.89,0.15-1.83-0.42-2.78c-1-1.65-3.17-3.05-5.29-3.4c-1.98-0.33-4.05-0.21-6.24-0.08c-2.15,0.13-4.38,0.26-6.64-0.04
		c-6.51-0.89-12.72-5.47-17.48-12.91c-3.73-5.82-4.9-10.93-3.58-15.61c1.08-3.83,3.96-6.71,7.52-7.51
		c4.97-1.12,8.82,1.93,12.21,4.62c0.48,0.38,0.96,0.76,1.43,1.12c2.36,1.8,6.64,3.68,8.75,1.5c1.43-1.47,1.1-3.73,0.38-7.27
		c-0.74-3.65-1.57-7.78,1.15-11.19c2.7-3.38,8.05-4.09,11.69-1.56c6.23,4.34,10.65,2.45,14.92,0.62c4.69-2.01,10-4.29,14.8,4.72
		c4.23,7.93,0.7,13.9-2.13,18.7c-2.97,5.03-5.11,8.67-0.75,14.15c2.48,3.11,6.61,4.74,11.06,4.36c2.6-0.22,4.82,0.58,6.43,2.31
		c3.02,3.26,3.74,9.55,2.18,19.24c-0.45,2.81-1.04,5.67-1.6,8.43c-1.99,9.71-3.87,18.89-0.84,27.56c1.29,3.69,4.58,6.73,8.81,8.14
		c4.23,1.41,8.69,0.95,11.93-1.23l1.66-1.12l2.23,3.32l-1.66,1.12c-4.26,2.86-10.03,3.5-15.42,1.7c-5.39-1.8-9.63-5.76-11.32-10.61
		c-3.39-9.71-1.32-19.86,0.69-29.68c0.56-2.72,1.13-5.54,1.57-8.27c1.74-10.85,0.02-14.61-1.16-15.88
		c-0.76-0.82-1.79-1.16-3.16-1.04c-5.78,0.5-11.22-1.69-14.53-5.85c-6.08-7.63-2.62-13.5,0.43-18.67c2.8-4.74,5.22-8.84,2.04-14.79
		c-3.08-5.77-5.15-4.88-9.7-2.92c-4.52,1.94-10.72,4.6-18.78-1.01c-1.91-1.33-4.9-0.96-6.28,0.77c-1.56,1.95-0.97,4.84-0.35,7.9
		c0.74,3.64,1.57,7.77-1.43,10.85c-3.7,3.81-9.72,2.18-14.04-1.11c-0.5-0.38-0.99-0.77-1.49-1.17c-2.95-2.34-5.75-4.55-8.85-3.85
		c-2.12,0.48-3.87,2.28-4.55,4.7c-1,3.56-0.02,7.49,3.1,12.37c2.39,3.72,7.46,10.12,14.65,11.1c1.87,0.25,3.81,0.14,5.85,0.01
		c2.32-0.14,4.71-0.29,7.14,0.12c3.28,0.55,6.44,2.62,8.05,5.28c1.19,1.96,1.47,4.07,0.81,6.09c-0.44,1.36-1.26,2.46-1.98,3.43
		c-0.72,0.97-1.34,1.81-1.45,2.65c-0.15,1.13,0.64,2.53,2.34,4.15c1.71,1.64,3.68,3.17,5.59,4.66c3.94,3.07,8.02,6.24,10.58,10.81
		c2.49,4.43,2.37,10.58-0.29,14.98c-1.92,3.16-4.82,4.84-8.21,4.74c-5-0.17-8.7-4.22-11.96-7.79c-4.07-4.46-6.28-6.41-8.94-5.07
		c-0.69,0.35-0.81,1.34-0.9,3.38c-0.16,3.34-0.43,8.93-9.22,8.95c-0.01,0-0.03,0-0.04,0c-7.52,0-8.71-5.03-9.49-8.36
		c-0.79-3.38-1.16-4.91-5.25-4.61c-4.01,0.3-5.67,4.3-7.92,10.86c-1.83,5.33-3.73,10.85-8.31,13.69l-0.52,0.32l-0.61-0.03
		c-7.96-0.33-12.78-9.05-12.67-16.94c0.05-3.65,0.81-7.2,1.54-10.62c0.7-3.28,1.36-6.38,1.45-9.53c0.08-3.17-1.2-3.56-4.93-4.22
		c-3.65-0.65-9.17-1.63-9.17-9.53c0-8.45,0-21.21-7.22-22.01c-1.9-0.2-3.92,1.77-5.99,5.91c-5.6,11.21-5.08,25.29-4.58,38.91
		c0.4,10.66,0.8,21.69-1.81,31.12c-0.86,3.1-3.68,5.01-6.89,4.63c-3.18-0.38-5.48-2.88-5.59-6.09l-1.11-32.7
		c-0.16-4.56-0.58-7.89-4.6-9.16c-1.24-0.39-2.67-0.5-4.24-0.32c-19,2.17-21.09,10.43-21.97,21.87c-0.43,5.62-0.29,12.29-0.17,18.17
		c0.2,9.59,0.24,14.69-1.16,16.79C268.58,330.38,265.99,331.55,263.44,331.55z M223.02,311.7c0.24,4.14,0.59,8.27,1.12,12.34
		c0.16,1.2,1.38,1.81,2.51,1.85c0.65,0.02,2.21-0.12,2.56-1.87c0.33-1.65,0.56-3.57,0.73-5.67
		C226.98,316.85,224.82,314.37,223.02,311.7z M234.1,315.58c1.88,0.35,3.82,0.05,5.81-0.9c4.2-2,8.16-6.84,9.84-12.04
		c1.01-3.13,1.64-6.53,2.24-9.81c0.57-3.12,1.16-6.3,2.09-9.39c-0.3-5.55-1.05-10.36-2.26-14.62c-1.09-3.82-4.25-5.41-6.85-5.62
		c-2.63-0.21-6.04,0.86-7.74,4.5c-3.11,6.65-3.09,15.38-3.07,23.08l0,0.63c0.01,2.23,0.03,4.54,0.06,6.87
		C234.28,304.21,234.35,310.26,234.1,315.58z M222.64,303.41c0.43,0.71,0.86,1.43,1.29,2.16c1.9,3.22,3.71,6.3,6.24,8.22
		c0.16-4.8,0.11-10.19,0.05-15.47c-0.03-2.35-0.05-4.67-0.06-6.91l0-0.63c-0.02-8.12-0.05-17.33,3.44-24.79
		c2.12-4.53,6.71-7.18,11.69-6.79c4.95,0.4,9.02,3.74,10.37,8.51c0.72,2.55,1.29,5.26,1.71,8.18c5.3-8.55,14.58-12.73,23.56-16.78
		c3.83-1.73,7.79-3.51,11.33-5.6c14.23-8.4,23.89-23.85,25.21-40.32c0.68-8.45-1.08-14.99-5.24-19.42
		c-2.89-3.09-6.9-4.63-10.71-4.12c-6.81,0.91-10.45,7.49-14.31,14.46c-2.99,5.41-6.09,11-10.95,14.65
		c-1.37,1.03-3.05,1.42-4.61,1.09c-3.19-0.68-3.52-3.43-3.65-4.46c-1.25-10.47,3.69-21.56,12.91-28.95
		c7.66-6.14,18.04-9.76,30.03-10.47c1.46-0.08,2.93-0.13,4.39-0.17c5.81-0.17,11.31-0.34,16.27-3.05c3-1.64,5.07-4.11,5.83-6.95
		c0.69-2.57,0.28-5.06-1.22-7.38c-2.46-3.82-7.67-6.9-13.29-7.85c-2.93-0.49-6.03-0.66-9.03-0.82c-5.48-0.29-11.15-0.59-16.4-2.85
		c-3.91-1.68-7.31-4.33-10.6-6.89c-4.54-3.54-8.83-6.89-14.03-7.42c-1.59-0.16-3.24-0.05-4.98,0.07c-2.47,0.17-5.02,0.34-7.6-0.28
		c-3.23-0.77-5.84-2.62-8.37-4.4c-1.74-1.22-3.37-2.38-5.15-3.16c-4.86-2.15-11.09-1.09-15.08,2.43
		c5.43,9.12,15.94,14.94,26.57,14.57l2.38-0.08l-0.33,2.36c-1.4,10.01-9.7,16.95-16.41,21c-2.83,1.71-5.81,3.23-8.69,4.7
		c-4.83,2.46-9.4,4.79-13.45,8c-7.93,6.27-13.19,15.61-14.44,25.64c-1.45,11.68,2.3,22.88,6.27,34.74
		c1.66,4.96,3.38,10.1,4.66,15.23c3.43,13.77,3.81,28.11,4.17,41.99C222.48,298.04,222.55,300.72,222.64,303.41z"/>
</g>
<g>
	<path class="st0" d="M265.42,132.64l-0.24-1.98c-0.89-7.26-8.71-11.44-15.72-12.92c-7.22-1.53-15.05-1.2-22.63-0.88l-2.07,0.09
		c-4.29,0.17-8.46,0.23-12.32-0.96c-6.25-1.92-9.98-6.56-13.08-11.28c-5.89-8.98-11.66-19.63-9.73-30.6
		c1.45-8.24,8.87-23.79,42.37-35.42c1.29-0.45,2.59-0.88,3.89-1.32c5.05-1.69,10.28-3.45,14.69-5.89c5.91-3.28,9.45-7.47,9.71-11.5
		l0.13-2l3.99,0.25l-0.13,2c-0.34,5.42-4.63,10.8-11.76,14.75c-4.74,2.62-10.14,4.44-15.36,6.19c-1.29,0.43-2.57,0.86-3.85,1.3
		c-10.91,3.79-36.62,14.52-39.74,32.33c-1.68,9.59,3.67,19.39,9.14,27.71c2.51,3.82,5.62,8.03,10.91,9.66
		c3.25,1,7.05,0.94,10.98,0.78l2.06-0.09c7.82-0.33,15.92-0.67,23.62,0.96c10.84,2.29,17.89,8.4,18.87,16.35l0.24,1.99
		L265.42,132.64z"/>
</g>
<g>
	<path class="st0" d="M216.97,48.64l-1.4-1.43c-3.32-3.4-4.71-7.99-3.79-12.59c1.06-5.35,5.05-9.98,10.67-12.39l1.84-0.79l1.58,3.68
		l-1.84,0.79c-4.41,1.89-7.52,5.44-8.33,9.5c-0.66,3.33,0.31,6.53,2.73,9.01l1.4,1.43L216.97,48.64z"/>
</g>
<g>
	<path class="st0" d="M200.38,61.47l-3.85-1.08l0.54-1.92c0.94-3.35-2.14-6.59-5.07-8.35c-0.69-0.41-1.44-0.78-2.24-1.17
		c-1.4-0.69-2.85-1.39-4.09-2.42c-2.02-1.67-3.12-3.88-3.17-6.41c-0.06-3.18,1.6-6.6,4.46-9.16c3.11-2.78,7.15-4.69,11.06-6.54
		c1.35-0.64,2.74-1.3,4.05-1.97c5.75-2.97,8.96-6.16,9.29-9.24l0.21-1.99l3.98,0.42l-0.21,1.99c-0.48,4.54-4.33,8.71-11.44,12.37
		c-1.37,0.71-2.8,1.38-4.18,2.04c-3.82,1.81-7.43,3.51-10.1,5.91c-1.97,1.76-3.16,4.09-3.12,6.1c0.03,1.35,0.6,2.49,1.71,3.41
		c0.87,0.72,2.05,1.3,3.3,1.91c0.84,0.41,1.71,0.84,2.54,1.33c5.45,3.27,8.15,8.32,6.87,12.87L200.38,61.47z"/>
</g>
<g>
	<path class="st0" d="M189.24,34.16l-1.94-0.5c-5.44-1.4-9.75-5.01-11.52-9.65c-1.37-3.59-0.99-7.25,1.06-10.31l1.11-1.66l3.32,2.23
		l-1.11,1.66c-1.31,1.95-1.54,4.32-0.64,6.66c1.29,3.38,4.65,6.13,8.78,7.2l1.94,0.5L189.24,34.16z"/>
</g>
<g>
	<path class="st0" d="M189.5,80.4l-0.44-1.95c-1.14-4.99-6.69-10.04-14.48-13.19c-6.32-2.56-14.16-3.88-23.97-4.05
		c-4.57-0.08-9.83,0.08-14.21,1.82c-3.42,1.36-6.59,4.21-6.03,7.01l0.4,1.96l-3.92,0.79l-0.4-1.96c-0.9-4.44,2.58-9.18,8.47-11.52
		c5.04-2,10.79-2.19,15.75-2.1c10.31,0.18,18.61,1.6,25.4,4.34c9.12,3.69,15.44,9.67,16.88,16.01l0.45,1.95L189.5,80.4z"/>
</g>
<g>
	<path class="st0" d="M168.27,63.24l-0.25-1.98c-0.1-0.75-0.15-2.09-0.2-3.52c-0.04-1.21-0.1-2.59-0.17-3.16
		c-0.29-2.29-0.6-4.66-1.78-6.65c-2.53-4.23-8.49-6.57-14.8-9.06c-5.9-2.32-12-4.73-15.75-9.01L134,28.37l3.01-2.63l1.32,1.5
		c3.11,3.55,8.75,5.77,14.21,7.92c6.65,2.62,13.54,5.33,16.76,10.72c1.62,2.7,1.99,5.62,2.32,8.19c0.1,0.75,0.15,2.09,0.2,3.52
		c0.04,1.21,0.1,2.59,0.17,3.16l0.25,1.98L168.27,63.24z"/>
</g>
<g>
	<path class="st0" d="M235.5,116.55l-0.52-1.93c-1.61-5.94-0.42-11.94,0.73-17.74c1.32-6.62,2.56-12.87-0.37-18.54
		c-4.52-8.76-8.21-11.43-20.74-15.01l-1.92-0.55l1.1-3.85l1.92,0.55c12.68,3.62,17.81,6.59,23.19,17.02
		c3.57,6.92,2.13,14.15,0.74,21.15c-1.11,5.59-2.16,10.88-0.8,15.91l0.52,1.93L235.5,116.55z"/>
</g>
<g>
	<path class="st0" d="M241.35,87.48l-3.84-1.13l0.56-1.92c1.57-5.35,6.46-11.31,12.16-14.81c1.96-1.21,4.02-2.35,6.02-3.45
		c3.33-1.84,6.77-3.74,9.67-5.93c7.82-5.89,12-14.27,11.19-22.41l-0.2-1.99l3.98-0.39l0.2,1.99c0.94,9.54-3.83,19.26-12.77,25.99
		c-3.12,2.36-6.69,4.33-10.15,6.24c-1.95,1.08-3.97,2.2-5.86,3.35c-4.84,2.97-9.12,8.13-10.42,12.53L241.35,87.48z"/>
</g>
<g>
	<path class="st0" d="M252.56,72.55l-3.2-2.4l1.2-1.6c6.14-8.19,5.69-19.35-1.09-27.14l-1.31-1.51l3.02-2.63l1.31,1.51
		c8.03,9.23,8.56,22.45,1.27,32.16L252.56,72.55z"/>
</g>
<g>
	<path class="st0" d="M263.55,66.57l-2.15-3.37l1.69-1.08c2.93-1.87,5.32-1.56,7.24-1.31c0.37,0.05,0.75,0.1,1.13,0.13
		c1.19,0.09,2.3,0.31,3.39,0.53c1.1,0.22,2.14,0.42,3.17,0.48c3.16,0.19,6.61-1.02,9.22-3.23c2.44-2.07,4-4.74,5.52-7.33l1.01-1.73
		l3.45,2.02l-1.01,1.73c-1.6,2.74-3.42,5.85-6.38,8.36c-3.37,2.86-7.88,4.42-12.04,4.17c-1.3-0.08-2.53-0.32-3.71-0.55
		c-1.02-0.2-1.98-0.39-2.94-0.46c-0.45-0.04-0.89-0.09-1.33-0.15c-1.66-0.21-2.87-0.37-4.57,0.72L263.55,66.57z"/>
</g>
<g>
	<path class="st0" d="M267.36,131.59l-0.19-1.99c-1.01-10.38,4.08-23.89,11.6-30.77c3.1-2.84,6.29-4.58,9.49-5.16
		c3.37-0.62,6.62,0.02,9.77,0.63c1.95,0.38,3.79,0.74,5.62,0.81c2.69,0.1,5.67-1.13,7.15-2.92c0.79-0.95,1.08-1.97,0.85-3.02
		l-0.43-1.95l3.91-0.86l0.43,1.95c0.5,2.26-0.1,4.55-1.68,6.44c-2.29,2.75-6.46,4.5-10.37,4.35c-2.14-0.08-4.23-0.48-6.25-0.88
		c-2.91-0.57-5.65-1.1-8.28-0.62c-2.44,0.45-4.97,1.85-7.51,4.18c-6.58,6.02-11.21,18.32-10.32,27.43l0.19,1.99L267.36,131.59z"/>
</g>
<g>
	<path class="st0" d="M293.82,96.9l-1.15-3.83l1.92-0.57c5.9-1.77,11.95-12.85,10.61-19.44l-0.4-1.96l3.92-0.79l0.4,1.96
		c1.6,7.9-4.85,21.5-13.38,24.06L293.82,96.9z"/>
</g>
<g>
	<path class="st0" d="M309.07,134.07l-1.66-1.12c-14.39-9.73-29.48-7.48-34.84-2.12l-1.41,1.41l-2.83-2.83l1.41-1.41
		c5.75-5.75,13.99-6.2,19.89-5.58c6.94,0.74,14.43,3.44,20.02,7.22l1.66,1.12L309.07,134.07z"/>
</g>
<g>
	<path class="st0" d="M280.49,126.69l-0.62-3.95l1.98-0.31c8.56-1.33,15.97-3.65,22.05-6.87c7.16-3.8,12.42-9.63,14.42-15.98
		l0.6-1.91l3.82,1.2l-0.6,1.91c-2.35,7.46-8.16,13.96-16.36,18.32c-6.47,3.43-14.31,5.89-23.3,7.29L280.49,126.69z"/>
</g>
<g>
	<path class="st0" d="M322.04,126.05l-0.64-1.89c-1.62-4.79-6.27-5.75-13.24-5.75h-2v-4h2c7.35,0,14.51,1.03,17.03,8.47l0.64,1.89
		L322.04,126.05z"/>
</g>
<g>
	<path class="st0" d="M314.49,111.69l-0.62-3.95l1.98-0.31c5.97-0.93,12.67-4.53,14.2-10.48l0.5-1.94l3.87,1l-0.5,1.94
		c-2.12,8.23-10.73,12.38-17.46,13.43L314.49,111.69z"/>
</g>
<g>
	<path class="st0" d="M289.31,97.23l-2.97-2.68l1.34-1.49c4.29-4.77,5.62-13.77,2.77-18.88l-0.97-1.75l3.5-1.95l0.97,1.75
		c3.7,6.64,2.19,17.41-3.29,23.5L289.31,97.23z"/>
</g>
<g>
	<path class="st0" d="M14.14,282.16l-0.08-4l2-0.04c27.19-0.54,52.29-13.86,76.56-26.74c6.61-3.5,13.44-7.13,20.2-10.44
		c9.36-4.58,19.5-8.9,30.25-9.59c9.99-0.63,18.96,0.59,26.68,3.64c3.02,1.19,6.13,2.56,9.14,3.88c9.94,4.35,20.21,8.85,28.95,8.13
		l1.99-0.17l0.33,3.99l-1.99,0.17c-9.75,0.82-20.49-3.9-30.89-8.45c-2.98-1.3-6.06-2.65-9.01-3.82c-7.17-2.83-15.57-3.97-24.96-3.37
		c-10.05,0.64-19.76,4.79-28.74,9.19c-6.7,3.28-13.5,6.89-20.08,10.38c-24.68,13.1-50.21,26.64-78.35,27.2L14.14,282.16z"/>
</g>
<g>
	<path class="st0" d="M445.15,232.04l-1.11-3.84l1.92-0.56c8.37-2.42,16.76-5.36,24.88-8.21c11.3-3.96,22.99-8.06,34.9-10.86
		c24.64-5.78,45.72-4.53,62.66,3.73c1.89,0.92,3.79,1.96,5.62,2.95c6.23,3.39,12.1,6.59,18.55,6.27l2-0.1l0.21,4l-2,0.1
		c-7.56,0.39-14.22-3.24-20.67-6.75c-1.79-0.98-3.65-1.99-5.46-2.87c-16.09-7.85-36.28-9-59.99-3.43
		c-11.7,2.75-23.28,6.81-34.49,10.74c-8.17,2.86-16.61,5.83-25.09,8.28L445.15,232.04z"/>
</g>
<g>
	<path class="st0" d="M341.55,250.01l-0.45-3.97l1.99-0.22c10.06-1.14,19.85-3.84,29.09-8.03l1.82-0.83l1.65,3.64l-1.82,0.83
		c-9.62,4.37-19.81,7.18-30.29,8.36L341.55,250.01z"/>
</g>
</svg>
