<?xml version="1.0" encoding="utf-8"?>
<!-- Generator: Adobe Illustrator 27.4.0, SVG Export Plug-In . SVG Version: 6.00 Build 0)  -->
<svg version="1.1" id="Layer_1" xmlns="http://www.w3.org/2000/svg" xmlns:xlink="http://www.w3.org/1999/xlink" x="0px" y="0px"
	 viewBox="0 0 602 342" style="enable-background:new 0 0 602 342;" xml:space="preserve">
<style type="text/css">
	.st0{fill:#0095BD;}
</style>
<g>
	<path class="st0" d="M338,302.94c-5.43,0-12.55-2.02-20.92-4.39c-22.32-6.33-56.06-15.9-95.7-0.28l-1.47-3.72
		c40.9-16.11,75.41-6.32,98.25,0.15c15.53,4.4,23.75,6.44,26.22,0.89c0.51-1.14,0.47-2.17-0.13-3.23
		c-2.48-4.39-13.69-8.53-27.89-10.31c-46.99-5.87-95.46-3.42-140.17,7.11c-2.54,0.6-5.1,1.21-7.67,1.83
		c-33.59,8.04-68.32,16.36-99.36,1.98c-7.35-3.41-12.28-7.56-15.07-12.7c-3.79-6.98-3.61-16.45,0.48-25.99
		c12.14-28.27,45.62-39,70.6-39.6l1.04-0.02c4.75-0.1,9.67-0.21,13.25-2.71c4-2.8,5.45-7.8,7-13.09c1.21-4.15,2.46-8.45,5.04-12.03
		c2.82-3.93,7.17-6.94,13.28-9.21c1.28-0.48,2.55-0.88,3.79-1.21c-0.54-0.26-1.1-0.48-1.68-0.66c-3-0.91-5.92-1.21-8.73-1.5
		c-4.93-0.51-10.02-1.03-15.13-4.87c-2.69-2.01-4.45-4.59-6.15-7.08c-3.14-4.58-5.4-7.89-12.15-6.91l-0.68,0.1l-0.6-0.34
		c-2.18-1.24-3.47-3.35-3.63-5.94c-0.26-4.15,2.41-9.28,6.35-12.21c0.84-0.62,1.72-1.24,2.62-1.86c4.09-2.84,7.95-5.52,8.16-9.5
		c0.04-0.73-0.06-1.53-0.16-2.37c-0.17-1.44-0.37-3.08,0.09-4.75c1.16-4.22,5.24-5.81,8.84-7.2c0.75-0.29,1.5-0.58,2.21-0.89
		c7.82-3.46,12.19-13.24,9.54-21.38c-2.65-8.13-11.96-13.45-20.31-11.63c-0.95,0.21-1.92,0.49-2.94,0.8
		c-3.09,0.91-6.58,1.95-10.02,0.67c-2.25-0.84-3.92-2.51-5.39-3.98c-0.39-0.39-0.78-0.78-1.18-1.15c-6.92-6.45-18.23-7.66-26.9-2.88
		c-8.27,4.56-13.76,14.32-13.65,24.29c0.02,1.78,0.2,3.55,0.38,5.42c0.3,2.99,0.6,6.09,0.22,9.23c-0.64,5.28-4.06,11.35-10.05,12.23
		c-1.94,0.28-3.76-0.04-5.52-0.35c-1.62-0.28-3.15-0.55-4.52-0.27c-1.95,0.4-3.05,1.86-3.63,3.01c-1.26,2.51-1.3,5.94-0.1,8.54
		c1.79,3.85,5.19,6.68,8.79,9.68c0.91,0.75,1.81,1.51,2.69,2.28c6.21,5.44,9.14,11.21,8.47,16.66c-0.26,2.13-1.04,4.1-1.8,6.01
		c-1.06,2.67-1.97,4.97-1.33,7.13c0.73,2.46,3.34,4.14,6.11,5.92c3.48,2.24,7.42,4.78,7.66,9.49c0.03,0.69,0.08,1.36,0.12,2.02
		c0.54,8.16,1.01,15.21-15.87,27.27c-9.26,6.62-38.5,30.41-25.88,58.81l-3.66,1.62c-13.85-31.17,17.32-56.63,27.21-63.69
		c15.06-10.76,14.7-16.21,14.2-23.75c-0.04-0.68-0.09-1.37-0.13-2.08c-0.13-2.48-2.29-4.05-5.83-6.33c-3.11-2-6.63-4.27-7.78-8.15
		c-1.04-3.49,0.28-6.81,1.44-9.74c0.69-1.75,1.35-3.4,1.55-5.02c0.63-5.16-3.54-10.01-7.14-13.17c-0.85-0.75-1.73-1.48-2.61-2.21
		c-3.78-3.15-7.68-6.4-9.85-11.07c-1.72-3.7-1.66-8.42,0.15-12.02c1.38-2.74,3.65-4.56,6.39-5.13c2.11-0.43,4.09-0.09,6.01,0.25
		c1.52,0.27,2.95,0.52,4.25,0.33c3.74-0.55,6.18-4.82,6.66-8.76c0.33-2.7,0.05-5.45-0.23-8.35c-0.19-1.88-0.38-3.82-0.4-5.77
		c-0.13-11.4,6.19-22.58,15.72-27.83c10.13-5.59,23.41-4.13,31.55,3.46c0.43,0.4,0.86,0.83,1.28,1.25c1.3,1.3,2.52,2.52,3.97,3.06
		c2.19,0.82,4.76,0.05,7.49-0.75c1.05-0.31,2.13-0.63,3.22-0.87c10.27-2.25,21.71,4.3,24.97,14.29c3.26,10-2.1,22.03-11.72,26.28
		c-0.76,0.33-1.56,0.65-2.37,0.96c-2.98,1.16-5.8,2.26-6.43,4.54c-0.25,0.92-0.12,2.03,0.02,3.21c0.12,0.98,0.24,1.98,0.18,3.05
		c-0.31,5.95-5.39,9.47-9.88,12.58c-0.86,0.6-1.71,1.19-2.51,1.78c-2.79,2.07-4.91,6-4.74,8.76c0.06,1.03,0.43,1.81,1.12,2.37
		c8.64-0.93,12.14,4.18,15.24,8.71c1.52,2.22,3.1,4.52,5.25,6.14c4.22,3.17,8.36,3.59,13.14,4.09c3.01,0.31,6.11,0.63,9.49,1.65
		c2.27,0.69,4.34,1.9,6.13,3.5c3.96-0.32,7.56,0.24,10.68,1.69c3.24,1.5,5.91,4.69,7.32,8.76c1.51,4.34,6.18,6.89,10.86,5.96
		c7.16-1.43,14.35-3.05,20.7-4.48c7.12-1.6,13.37-3.01,18.43-3.92c0.07-8.61,0.03-17.24,0-25.61c-0.03-7.18-0.06-14.59-0.02-22.05
		c-2.02-0.44-4.55-1.42-5.07-3.54c-0.42-1.71,0.56-3.36,2.91-4.93l0.33-0.2c1.03-0.65,5.99-4,10.38-6.98
		c3.51-2.38,7.25-4.91,10.13-6.84c5.71-3.83,5.71-3.83,6.78-3.43l0,0.01c1.22,0.44,4.12,2.11,13.37,7.86
		c2.96,1.84,12.68,7.91,13.59,8.82c1.6,1.6,1.69,3.14,1.48,4.15c-0.36,1.75-1.82,2.93-2.94,3.6v21.52l5.17-1.72l-0.87-56.74
		c-1.31-0.75-3.11-2.15-3.26-4.31c-0.15-2.06,1.24-3.95,4.15-5.61c4.9-2.8,31.27-20.18,31.54-20.35l1.36-0.9l1.1,1.1
		c1.98,1.54,28.62,17.61,31.28,19.13c2.91,1.66,4.33,3.58,4.24,5.69c-0.1,2.14-1.76,3.63-2.97,4.44l1.75,55.94
		c1.37,1.09,3.78,3.31,8.42,7.75c4.35,4.16,10.08,9.88,12.68,13.53c3.07,4.3,5.03,12.29,5.41,18.47c0.37-0.02,0.76-0.04,1.18-0.06
		c5.3-0.28,16.32-0.87,23.43-0.87c0.85,0,1.69-0.01,2.52-0.01c8.26-0.06,16.06-0.13,22.43,6.78c1.59,1.73,2.87,4.29,3.8,7.62
		c0.29,1.04,1.3,1.75,2.38,1.66c4.6-0.34,10.9-0.74,14.81-0.74c5.81,0,11.8-0.09,17.59-0.17c21.15-0.3,43.02-0.62,63.86,3
		c3.59,0.62,7.57,1.51,9.39,4.15c1.34,1.95,0.24,3.86-0.42,5c-0.44,0.77-0.74,1.32-0.69,1.74l10.67,28.43
		c0.33,1.45,0.3,2.89-0.09,4.16c-1.34,4.4-5.56,4.3-7.59,4.25l-66.74-1.54c-8.55-0.2-21.87,3.6-29.66,8.46
		c-7.96,4.97-19.77,7.59-35.1,7.78c-45.54,0.57-184.15,2.29-246.1-14.25c-5.48-1.46-11.09-3.15-16.52-4.78
		c-1.65-0.5-3.3-0.99-4.96-1.48c-0.46,0.31-0.93,0.62-1.42,0.93c-16.65,10.6-36.66,16.43-56.4,16.43c-0.15,0-0.3,0-0.45,0
		c-6.36-0.03-14.94-2.46-18.78-7.74c-1.98-2.72-2.48-5.91-1.43-9.21c1.1-3.45,3.73-6.29,7.23-7.77c22.91-9.73,47-3.97,70.54,2.96
		c6.31-4.64,9.55-9.49,9.63-14.46c0.04-2.78-0.9-5.83-1.82-8.78c-1.62-5.22-3.29-10.62-0.06-15.49c1.4-2.11,3.38-3.45,5.3-4.74
		c0.85-0.58,1.65-1.12,2.38-1.71c3.83-3.12,5.51-8.63,4.38-14.38c-0.6-3.04-1.89-5.71-3.68-7.78c-2.38,0.37-4.63,1.04-6.53,1.74
		c-5.34,1.99-9.08,4.54-11.43,7.8c-2.17,3.03-3.33,6.98-4.45,10.81c-1.67,5.72-3.4,11.64-8.55,15.25
		c-4.57,3.2-10.35,3.32-15.46,3.43l-1.03,0.02c-23.79,0.57-55.62,10.65-67.02,37.18c-3.61,8.4-3.84,16.6-0.64,22.5
		c2.36,4.36,6.7,7.95,13.24,10.98c29.78,13.79,63.82,5.64,96.75-2.24c2.57-0.62,5.14-1.23,7.69-1.83
		c45.17-10.63,94.13-13.12,141.59-7.18c6.04,0.75,26.12,3.87,30.88,12.31c1.22,2.16,1.33,4.52,0.3,6.82
		C346.19,301.41,342.74,302.94,338,302.94z M161.25,248.37c0.71,0.21,1.42,0.43,2.13,0.64c5.4,1.62,10.99,3.3,16.4,4.74
		c61.42,16.4,199.61,14.68,245.02,14.12c14.59-0.18,25.7-2.59,33.03-7.17c8.35-5.21,22.7-9.29,31.87-9.07l66.74,1.54
		c2.73,0.05,3.34-0.32,3.67-1.42c0.17-0.57,0.19-1.26,0.04-1.98l-10.68-28.46c-0.45-1.99,0.45-3.56,1.11-4.71
		c0.16-0.27,0.37-0.65,0.47-0.89c-1.17-1.37-5-2.03-6.66-2.32c-20.47-3.56-42.15-3.25-63.12-2.95c-5.8,0.08-11.8,0.17-17.65,0.17
		c-3.79,0-9.99,0.4-14.52,0.73c-2.99,0.23-5.72-1.71-6.52-4.58c-0.75-2.68-1.75-4.75-2.89-5.98c-5.16-5.61-11.46-5.56-19.45-5.49
		c-0.84,0.01-1.69,0.01-2.56,0.01c-7,0-17.96,0.58-23.22,0.86c-2.14,0.11-3.03,0.16-3.32,0.16h-2v-2c0-5.6-1.9-14.27-4.73-18.24
		c-3.33-4.67-12.64-13.49-17.67-18.07l0.05,1.59l-4.49-5.83l0.29-0.71l-1.84-58.93l1.21-0.55c0.82-0.38,1.82-1.22,1.84-1.67
		c0.01-0.21-0.38-0.98-2.23-2.04c-0.26-0.15-24.46-14.6-30.68-18.72c-5.18,3.41-26.15,17.18-30.63,19.74
		c-2,1.15-2.14,1.84-2.14,1.84c0.05,0.35,1.11,1.14,1.98,1.48l1.25,0.49l0.96,62.24l-13.21,4.4v-29.65l1.26-0.5
		c0.85-0.35,1.69-1.03,1.76-1.32l0,0c-0.01,0-0.06-0.18-0.39-0.51c-1.59-1.32-20.54-13.1-24.72-15.38c-2.28,1.46-9,6.01-14.08,9.46
		c-7.82,5.3-9.99,6.76-10.78,7.22c-0.4,0.27-0.67,0.49-0.86,0.66c0.7,0.32,1.96,0.65,3.07,0.77l1.78,0.2l-0.01,1.8
		c-0.05,8.02-0.02,16,0.02,23.72c0.03,8.92,0.07,18.14-0.02,27.33l-0.02,1.68l-1.66,0.28c-5.22,0.87-12.01,2.4-19.87,4.16
		c-6.37,1.43-13.59,3.06-20.8,4.5c-6.63,1.33-13.26-2.36-15.42-8.57c-1.04-3-2.99-5.41-5.22-6.44c-1.82-0.84-3.76-1.26-5.7-1.37
		c1.33,2.13,2.31,4.59,2.84,7.26c1.42,7.21-0.8,14.2-5.78,18.25c-0.87,0.71-1.78,1.33-2.67,1.92c-1.67,1.13-3.24,2.19-4.21,3.64
		c-2.18,3.29-0.92,7.37,0.55,12.09c1.01,3.25,2.05,6.61,2,10.03C170.09,238.16,167.09,243.45,161.25,248.37z M112.63,242.86
		c-8.51,0-16.9,1.37-25.05,4.83c-2.42,1.03-4.23,2.96-4.98,5.3c-0.67,2.09-0.39,3.94,0.85,5.64c2.89,3.96,10.02,6.06,15.57,6.09
		c18.52,0.13,37.33-5.18,53.16-14.85C138.99,246.07,125.66,242.86,112.63,242.86z M266.31,113.65
		C266.31,113.65,266.31,113.65,266.31,113.65C266.31,113.65,266.31,113.65,266.31,113.65z"/>
</g>
</svg>
