<?xml version="1.0" encoding="utf-8"?>
<!-- Generator: Adobe Illustrator 27.4.0, SVG Export Plug-In . SVG Version: 6.00 Build 0)  -->
<svg version="1.1" id="Layer_1" xmlns="http://www.w3.org/2000/svg" xmlns:xlink="http://www.w3.org/1999/xlink" x="0px" y="0px"
	 viewBox="0 0 602 342" style="enable-background:new 0 0 602 342;" xml:space="preserve">
<style type="text/css">
	.st0{fill:#0095BD;}
</style>
<g>
	<path class="st0" d="M60.45,322.06c-8.46,0-27.06-0.85-37.8-7.8c-5.28-3.42-8.31-8.29-8.1-13.05c0.25-5.95,5.22-10.29,9.79-12.38
		c10.37-4.73,22.33-2.29,32.88-0.13l1.84,0.38c11.35,2.29,22.96,3.89,34.51,4.75c7,0.52,15.23,0.88,23.24-0.38
		c5.13-0.81,10.15-2.26,14.92-4.33l1.59,3.67c-5.08,2.2-10.42,3.75-15.89,4.61c-8.4,1.32-16.93,0.95-24.15,0.41
		c-11.72-0.87-23.5-2.49-35.01-4.82l-1.85-0.38c-10.44-2.13-21.24-4.34-30.42-0.15c-3.49,1.59-7.28,4.77-7.45,8.91
		c-0.14,3.33,2.21,6.89,6.28,9.52c9.15,5.92,26.79,7.53,39.12,7.11c19.49-0.67,24.47-1.36,43.7-4.97
		c32.36-6.07,45.35-12.83,58.56-40.89c2.59-5.51,3.68-11.77,4.83-18.39c2.23-12.82,4.75-27.34,19.87-37.43
		c17.07-11.38,26.87-6.01,36.34-0.81c4.54,2.49,8.84,4.85,14.01,5.49c6.69,0.83,9.86-3.16,13.53-7.78c3.7-4.66,7.82-9.88,15.97-9.5
		c0.45-7.88,0.96-15.74,1.47-23.52c0.23-3.47,0.45-6.94,0.67-10.38c-4.79-0.64-11.05-3.15-12.14-8.37
		c-0.54-2.58-2.18-10.42,6.63-13.36l0.28-0.09c1.95-0.65,5.05-1.68,6.72-3.02c-1.21,0.09-2.28,0.17-3.34,0.26
		c-3.61,0.3-6.73,0.56-13.5,0.56h-1.26l-0.54-1.14c-1.39-2.89-2.99-6-4.69-9.28c-4.15-8.03-8.84-17.13-11.22-25.01l-0.48-1.6
		l1.48-0.76c6.63-3.4,18.47-7.55,25.54-10.03c1.88-0.66,3.82-1.34,4.85-1.73c-0.03-0.71-0.17-1.84-0.27-2.66
		c-0.4-3.23-0.61-5.47,0.16-7.01C272.83,83.11,283.46,77,289,77c6.08,0,14.65,5.82,16.41,7.59c2.52,2.52,2.39,6.28,2.3,8.77
		c-0.01,0.41-0.03,0.91-0.02,1.28c1.05,0.45,3.32,1.29,5.53,2.1c7.54,2.78,18.95,6.98,23.96,10.65l1.14,0.83l-0.41,1.35
		c-3.42,11.38-9.45,30.79-11.5,32.84c-0.62,0.62-1.2,1.21-21.29,2.46c0.27,1.43,1.08,1.54,3.21,1.83c0.65,0.09,1.34,0.19,2.06,0.33
		c6.27,1.25,8.61,7.39,8.61,10.96c0,4.58-3.16,10.19-11.92,11.73c0.66,13.34,1.85,27.78,3.01,41.77
		c1.29,15.62,2.54,30.77,2.96,43.36c4.88,1.85,9.66,2.22,14.15,1.05c7.72-2.01,14.26-8.44,17.94-17.65
		c2.41-6.02,1.23-13.26,0.08-20.27c-1.59-9.74-3.23-19.82,4.36-27.4c9.63-9.63,15.73-6.84,21.63-4.15c4.8,2.19,9.34,4.26,16.95,0.75
		c4.55-2.1,4.76-8.25,5.01-15.37c0.33-9.65,0.74-21.67,14.39-24.77c9.98-2.27,18.78,0.65,24.14,7.99
		c5.18,7.11,6.04,17.19,2.03,23.97c-5.36,9.08-5.92,17.06-1.42,20.35c3.01,2.19,7.39,1.46,10.2-1.69
		c13.93-15.67,25.24-13.13,30.74-10.22c11.99,6.33,18,24.79,13.69,42.04c-3.86,15.43-12.74,28.9-25.7,38.96
		c-13.29,10.32-29.24,16.07-43.09,20.33c-33.59,10.34-68.43,15.88-103.57,16.47c-9.92,0.16-17.16-0.83-22.55-2.45
		c-2.54,0.74-5.19,1.28-7.87,1.83c-11.05,2.28-22.36,0.68-33.29-0.86c-1.58-0.22-3.15-0.45-4.72-0.66l-2.11-0.28
		c-19.45-2.61-39.57-5.31-58.78-1.84c-11.32,2.05-27.46,9.58-42.11,19.65l-2.27-3.3c15.31-10.53,31.64-18.11,43.66-20.29
		c19.83-3.59,40.27-0.84,60.03,1.81l2.11,0.28c1.58,0.21,3.17,0.44,4.75,0.66c10.6,1.5,21.55,3.04,31.92,0.91
		c0.79-0.16,1.56-0.32,2.32-0.48c-3.55-1.89-5.89-4.09-7.69-6.17c-6.84-7.95-7.84-18.91-8.29-29.46
		c-0.79-18.67-0.19-37.84,0.83-56.87c-6.08-0.25-9.13,3.6-12.61,7.99c-3.86,4.86-8.24,10.38-17.16,9.26
		c-5.93-0.74-10.77-3.39-15.44-5.96c-9.2-5.05-17.15-9.4-32.2,0.63c-13.7,9.13-15.96,22.17-18.15,34.78
		c-1.14,6.59-2.33,13.41-5.15,19.41c-13.84,29.42-28.13,36.87-61.44,43.11c-19.48,3.65-24.53,4.36-44.3,5.03
		C63.32,322.02,62.07,322.06,60.45,322.06z M298.45,300.29c5.21,0.92,10.76,1.06,16.06,0.97c34.76-0.59,69.24-6.07,102.46-16.3
		c13.51-4.16,29.04-9.75,41.82-19.67c12.24-9.51,20.63-22.22,24.27-36.77c3.82-15.28-1.42-32.11-11.68-37.53
		c-7.71-4.08-16.91-0.76-25.88,9.34c-4.18,4.71-10.87,5.68-15.55,2.27c-5-3.65-7.54-12.29,0.33-25.61
		c3.23-5.47,2.47-13.71-1.82-19.58c-2.57-3.52-8.59-9.05-20.02-6.45c-10.64,2.42-10.95,11.45-11.28,21
		c-0.26,7.73-0.54,15.73-7.33,18.86c-9.27,4.28-15.38,1.49-20.28-0.75c-5.5-2.51-9.47-4.32-17.14,3.34
		c-6.14,6.14-4.73,14.78-3.24,23.93c1.23,7.54,2.5,15.34-0.32,22.4c-4.16,10.4-11.69,17.7-20.65,20.04
		c-3.79,0.99-8.93,1.35-15.05-0.63c0.14,8.35-0.17,15.34-1.2,20.26C309.45,291.31,304.52,297.06,298.45,300.29z M274.49,208.37
		c-1.01,18.79-1.58,37.7-0.81,56.07c0.41,9.85,1.32,20.05,7.32,27.02c2.96,3.44,6.76,5.71,11.01,7.19
		c7.67-2.41,13.24-6.82,16.03-20.06c1.04-4.95,1.3-12.25,1.09-21.04c-2.96-1.39-6.1-3.33-9.39-6c-8.18-6.62-10.15-15.79-11.88-23.89
		C285.86,218.34,284.25,210.87,274.49,208.37z M274.72,204.3c12.84,2.9,14.98,12.87,17.05,22.53c1.68,7.81,3.41,15.88,10.49,21.62
		c2.24,1.82,4.49,3.33,6.73,4.54c-0.47-12.05-1.66-26.39-2.88-41.16c-1.21-14.67-2.47-29.83-3.1-43.74l-0.09-1.89l1.89-0.19
		c9.71-0.97,10.2-6.84,10.2-8.01c0-1.94-1.32-6.22-5.39-7.04c-0.64-0.13-1.25-0.21-1.83-0.29c-3.02-0.42-6.78-0.94-6.78-7.67v-1.88
		l1.88-0.11c8.72-0.53,18.4-1.29,20.87-1.72c1.5-2.83,6.02-16.55,9.92-29.45c-5.13-3.2-15.46-7-21.82-9.35
		c-5.7-2.1-6.66-2.48-7.25-3.08c-0.98-0.98-0.93-2.4-0.87-4.2c0.07-2.01,0.16-4.51-1.13-5.8C300.94,85.77,293.35,81,289,81
		c-4.6,0-13.49,5.71-14.32,7.36c-0.28,0.67,0.05,3.31,0.23,4.73c0.4,3.18,0.66,5.27-0.94,6.3c-0.5,0.32-1.56,0.71-6.28,2.36
		c-6.45,2.26-16.93,5.94-23.52,9.07c2.4,7.17,6.65,15.4,10.43,22.72c1.49,2.89,2.91,5.64,4.19,8.25c5.75-0.03,8.62-0.27,11.92-0.54
		c1.93-0.16,3.93-0.32,6.69-0.47l1.91-0.1l0.18,1.9c0.54,5.51-6.42,7.83-10.57,9.21l-0.28,0.09c-3.96,1.32-5.04,3.69-3.98,8.74
		c0.71,3.37,6.49,5.28,10.39,5.36l2.08,0.04l-0.13,2.08c-0.26,4.1-0.53,8.21-0.79,12.35C275.69,188.36,275.17,196.32,274.72,204.3z"
		/>
</g>
<g>
	<rect x="287" y="17" class="st0" width="4" height="62"/>
</g>
<g>
	<path class="st0" d="M290.75,325.67c-8.85,0-17.67-0.67-26.97-1.68c-8.1-0.88-16.29-2.54-24.22-4.15
		c-23.62-4.78-48.04-9.73-73.93,4.97l-1.97-3.48c27.19-15.43,52.36-10.34,76.7-5.41c7.84,1.59,15.94,3.23,23.86,4.09
		c20.92,2.28,39.33,2.77,61.25-2.26c15.79-3.63,27.28-8.56,36.13-15.51c9.99-7.84,19.76-21.89,17.25-37.8
		c-0.53-3.37-0.27-6.47,0.78-9.19c3.76-9.75,12.17-8.89,18.93-8.2c4.76,0.49,9.26,0.95,12.14-1.68c1.48-1.35,2.31-3.37,3.19-5.51
		c0.54-1.3,1.09-2.64,1.82-3.92c2.36-4.13,6.66-7.07,11.78-8.05c5.13-0.98,10.2,0.15,13.92,3.12s5.96,7.66,6.15,12.87
		c0.19,5.22-1.71,10.06-5.21,13.28c-1.96,1.81-4.43,3.43-6.81,5.01c-6.33,4.18-10.05,7-8.32,10.84c1.02,2.26,3.65,3.21,6.68,4.32
		c4.46,1.62,10,3.64,10.58,11.02c0.33,4.19-1.18,8.52-4.15,11.88c-0.46,0.52-0.93,1.04-1.42,1.54c5.76,1.22,11.51,2.65,17.21,4.06
		l3.41,0.84c36.98,9.11,79.61,16,115.47-1.94l1.79,3.58c-37.02,18.52-80.54,11.53-118.22,2.24l-3.41-0.84
		c-6.54-1.62-13.15-3.26-19.76-4.58c-11.9,10.4-28.39,15.83-44.57,14.38c-5.22-0.47-7.96-4.47-8.38-8.23
		c-0.41-3.73,1.4-8.2,6.35-9.77l0.16-0.05c14.76-4.62,30.03-3.53,45.24-0.64c1.09-1.03,2.14-2.11,3.13-3.24
		c2.25-2.55,3.41-5.8,3.16-8.92c-0.36-4.58-3.26-5.86-7.96-7.57c-3.4-1.24-7.25-2.63-8.96-6.43c-3.27-7.22,3.65-11.79,9.76-15.82
		c2.25-1.49,4.58-3.03,6.3-4.61c2.64-2.43,4.07-6.15,3.92-10.2c-0.15-4.05-1.84-7.65-4.65-9.89c-2.81-2.24-6.7-3.08-10.68-2.32
		c-3.98,0.76-7.28,2.99-9.06,6.1c-0.6,1.05-1.08,2.22-1.59,3.46c-1.01,2.45-2.05,4.99-4.19,6.94c-4.2,3.83-9.81,3.26-15.24,2.71
		c-7.52-0.77-12.26-0.91-14.79,5.66c-0.8,2.06-0.99,4.46-0.56,7.13c2.33,14.74-4.84,30.67-18.73,41.57
		c-9.34,7.33-21.32,12.5-37.71,16.26C313.7,324.55,302.19,325.67,290.75,325.67z M410.72,302.33c-6.97,0-13.85,0.84-20.57,2.94
		l-0.15,0.05c-2.98,0.95-3.79,3.57-3.58,5.52c0.22,1.98,1.59,4.4,4.76,4.68c14,1.26,28.25-3,39.08-11.35
		C423.71,303.05,417.18,302.33,410.72,302.33z"/>
</g>
</svg>
