<?xml version="1.0" encoding="utf-8"?>
<!-- Generator: Adobe Illustrator 27.4.0, SVG Export Plug-In . SVG Version: 6.00 Build 0)  -->
<svg version="1.1" id="Layer_1" xmlns="http://www.w3.org/2000/svg" xmlns:xlink="http://www.w3.org/1999/xlink" x="0px" y="0px"
	 viewBox="0 0 602 342" style="enable-background:new 0 0 602 342;" xml:space="preserve">
<style type="text/css">
	.st0{fill:#0095BD;}
</style>
<g>
	<path class="st0" d="M340.74,320.25c-0.98,0-1.95-0.22-2.87-0.65c-3.47-1.66-7.02-3.37-10.66-5.13
		c-22.28-10.78-47.53-23-78.78-32.31c-70.71-21.05-132.7-17.87-213.95,10.95l-1.34-3.77c82.13-29.13,144.83-32.32,216.43-11.01
		c31.56,9.39,56.97,21.69,79.38,32.54c3.63,1.76,7.17,3.47,10.64,5.12c0.83,0.4,1.76,0.35,2.55-0.14c0.79-0.49,1.25-1.29,1.28-2.22
		c0.26-11.46,0.41-32.76,0.49-52.62c-9.74-0.43-19.42-0.85-29.04-1.27c-50.31-2.21-102.33-4.49-155.93-6.5
		c-27.19-1.02-87.65-1.93-136.92-0.8l-0.09-4c49.36-1.14,109.92-0.21,137.17,0.8c53.61,2,105.64,4.29,155.96,6.5
		c9.57,0.42,19.2,0.84,28.88,1.27c0.08-22.1,0.08-41.39,0.08-41.77v-0.87l16-15v-75.24l8-5V88.57l9.16-12.21
		c3.88-15.35,9.64-38.45,9.85-40.24l0.09-1.7l1.69-0.13l1.69-0.19l0.48,1.68l10.87,38.54l10.2,13.26l-0.99,29.63
		c2.42,1.68,8.52,5.92,9.2,6.45l0.76,0.59l0.01,0.96c0.13,15.03,0.04,42.16,0.01,51.08l0,1.33l17.12,3.69l0.41,0.4
		c0.59,0.58,3.07,3,5.94,6.14c0.31-1.44,0.76-2.87,1.65-4.21c2.39-3.59,6.55-4.47,10.22-5.26c2.32-0.5,4.51-0.96,6.26-1.99
		c4.75-2.79,5.75-9.3,6.71-15.58c0.09-0.62,0.19-1.23,0.29-1.83c1.38-8.58,6.35-17.02,14.42-16.47c2.36,0.16,4.4,1.11,6.37,2.03
		c3.52,1.64,6.06,2.83,9.78-0.25c2.55-2.11,4.23-5.25,4.71-8.85l0.04-0.28c0.74-5.04,3.79-9.23,8.38-11.49
		c4.75-2.34,10.38-2.17,15.06,0.45c3.62,2.03,5.38,0.68,5.96,0.24c0.94-0.72,1.6-1.91,2.31-3.16c0.44-0.79,0.9-1.6,1.46-2.38
		c4.21-5.84,13.19-7.29,19.61-3.16c5.73,3.68,8.85,11.1,7.77,18.46c-0.5,3.39-1.79,6.54-3.03,9.58c-1.38,3.37-2.68,6.55-2.89,9.9
		c-0.58,9.07,6.68,16.44,13.7,23.57c1.22,1.24,2.43,2.47,3.58,3.69c4.86,5.14,10.32,14.26,9.71,23.01c-0.3,4.34-2.16,8-5.38,10.58
		c-1.68,1.35-3.65,2.33-5.56,3.29c-5.34,2.67-8.05,4.33-6.28,9.96c0.78,2.49,2.95,4.42,5.81,5.17c4.99,1.3,8.87,7.5,9,12.16
		c0.09,3.24-1.49,5.63-4.35,6.56c-2.33,0.76-4.54,0.08-6.49-0.51c-0.92-0.28-1.78-0.54-2.6-0.65c-4.51-0.57-7.68,3.28-11.35,7.74
		c-3.21,3.9-6.52,7.94-11.3,9.55c-3.48,1.18-7.02,0.79-10.45,0.43c-0.69-0.07-1.37-0.15-2.05-0.21c-5.79-0.51-10.08-0.39-14.61-0.27
		c-6.87,0.19-13.98,0.38-27.22-1.42c-15.98-2.18-20.05-21.45-21.72-35.75c-0.93-7.99-3.29-8.75-6.87-9.9
		c-4.51-1.46-10.13-3.28-14.07-16.77c-0.57-1.96-2.49-4.79-4.83-7.72c-3.39,5.74-11,6.84-17.17,7.73l-0.29,0.04
		c-4.52,0.65-12.16,3.18-12.1,8.54c0.03,2.71,2,4.91,4.28,7.46c1.97,2.2,4.01,4.47,5,7.4c0.95,2.8,0.83,5.84,0.72,8.77
		c-0.17,4.49-0.12,7.33,2.07,8.88c0.83,0.59,1.34,0.58,1.65,0.53c1.61-0.28,3.6-3.14,5.36-5.66c3.04-4.36,6.82-9.79,12.67-8.48
		c5.86,1.46,5.83,6.9,5.81,10.86c-0.02,3.34,0.08,5.44,1.57,6.26c1.33,0.49,2.92,0.87,4.59,1.27c4.4,1.05,9.38,2.24,11.75,6.14
		c1.43,2.36,1.69,5.27,0.78,8.9l-0.39,1.57l-1.62-0.06c-42-1.57-83.03-3.31-123.02-5.06c-0.08,19.84-0.23,41.09-0.49,52.54
		c-0.05,2.27-1.24,4.34-3.18,5.53C343.16,319.91,341.95,320.25,340.74,320.25z M526.89,263.54c2.71,0,5.6,0.09,9.01,0.39
		c0.7,0.06,1.41,0.14,2.12,0.21c3.13,0.34,6.09,0.65,8.74-0.24c3.69-1.25,6.64-4.84,9.49-8.3c4.05-4.93,8.24-10.03,14.95-9.17
		c1.15,0.15,2.22,0.47,3.26,0.79c1.58,0.48,2.96,0.9,4.09,0.53c0.77-0.25,1.64-0.77,1.59-2.64c-0.1-3.35-3.19-7.67-6.02-8.41
		c-4.2-1.1-7.42-4.03-8.62-7.84c-2.87-9.14,3.33-12.24,8.31-14.73c1.8-0.9,3.5-1.75,4.85-2.83c2.35-1.89,3.66-4.49,3.89-7.73
		c0.48-6.98-3.99-15.07-8.63-19.99c-1.14-1.2-2.33-2.41-3.53-3.63c-7.28-7.39-15.54-15.78-14.84-26.63c0.26-4,1.75-7.63,3.18-11.15
		c1.21-2.95,2.34-5.73,2.77-8.65c0.85-5.74-1.61-11.7-5.97-14.51c-4.61-2.96-11.25-1.96-14.2,2.14c-0.43,0.6-0.81,1.28-1.22,2
		c-0.83,1.48-1.77,3.16-3.36,4.37c-2.02,1.55-5.45,2.82-10.35,0.08c-3.53-1.98-7.77-2.11-11.33-0.35c-3.39,1.67-5.64,4.76-6.19,8.48
		l-0.03,0.22c-0.62,4.61-2.8,8.66-6.13,11.41c-5.67,4.68-10.3,2.53-14.02,0.79c-1.71-0.8-3.33-1.55-4.94-1.66
		c-5.5-0.34-9.15,6.55-10.2,13.12c-0.1,0.59-0.19,1.2-0.28,1.8c-1.06,6.88-2.26,14.67-8.64,18.42c-2.31,1.36-4.92,1.92-7.45,2.45
		c-3.35,0.71-6.24,1.33-7.73,3.56c-0.79,1.19-1.08,2.77-1.38,4.44c-0.08,0.45-0.16,0.91-0.25,1.36c3.21,3.82,6.21,7.98,7.1,11.01
		c3.34,11.46,7.47,12.79,11.46,14.08c4.91,1.59,8.47,3.46,9.61,13.25c2.41,20.63,8.22,30.88,18.28,32.25
		c12.91,1.76,19.85,1.57,26.57,1.39C522.85,263.59,524.82,263.54,526.89,263.54z M347.92,257.18c39.5,1.72,80,3.44,121.45,5
		c0.25-1.78,0.04-3.19-0.63-4.28c-1.5-2.48-5.45-3.42-9.26-4.33c-1.77-0.42-3.6-0.86-5.19-1.46l-0.19-0.08
		c-3.9-1.95-3.88-6.35-3.86-9.9c0.02-4.45-0.22-6.33-2.73-6.95c-2.95-0.66-5.27,2.29-8.47,6.88c-2.42,3.47-4.7,6.74-7.95,7.31
		c-1.57,0.28-3.13-0.13-4.65-1.21c-4.12-2.92-3.93-7.9-3.76-12.3c0.1-2.57,0.2-5.23-0.51-7.33c-0.73-2.15-2.41-4.02-4.19-6.01
		c-2.59-2.88-5.26-5.87-5.31-10.09c-0.08-7.59,8.32-11.5,15.53-12.54l0.3-0.04c5.87-0.84,12.52-1.8,14.66-6.49
		c0.09-0.21,0.18-0.42,0.26-0.65c-2.71-3.1-5.51-5.99-7.27-7.72L417,180.85v-1.61c0-0.3,0-1.34,0.01-2.95
		c0.03-8.71,0.12-34.83,0-50.02c-1.8-1.28-6.24-4.37-9.15-6.38l-0.9-0.62l1.01-30.37l-9.8-12.74l-8.96-31.77
		c-2.56,10.69-7.11,28.69-8.28,33.34l-0.1,0.39L372,89.91v31.44l-8,5v74.76l-16,15C348,220.13,347.99,237.57,347.92,257.18z"/>
</g>
<g>
	<path class="st0" d="M46.81,238.36c-2.12,0-4.19-0.4-6.1-1.2l1.55-3.69c3.13,1.32,6.91,1.17,10.37-0.41
		c3.46-1.58,6.05-4.34,7.1-7.57c0.5-1.54,0.73-3.2,0.97-4.95c0.2-1.46,0.41-2.98,0.79-4.49c1.16-4.55,3.95-7.74,7.46-8.53
		c1.11-0.25,2.21-0.24,3.17-0.23c0.93,0.01,1.81,0.02,2.51-0.21c2.29-0.74,2.84-3.42,3.48-7.76c0.23-1.6,0.48-3.25,0.91-4.78
		c1.12-3.97,4.14-7.3,8.27-9.15c4.13-1.84,8.63-1.87,12.33-0.06c0.81,0.4,1.58,0.86,2.33,1.31c1.73,1.04,3.22,1.94,4.69,1.77
		c1.06-0.12,2.13-0.85,3.27-1.62c1.34-0.9,2.85-1.93,4.73-2.24c4.09-0.68,7.04,2.06,9.64,4.48c1.39,1.29,2.7,2.51,4.1,3.23
		c0.88,0.45,1.9,0.74,2.98,1.04c0.9,0.25,1.83,0.52,2.76,0.9c5.84,2.37,9.46,7.98,11.07,17.13c0.3,1.73,1.65,2.51,2.81,2.67
		c0.54,0.07,2.38,0.16,3.28-1.75c1.29-2.81,1.4-6.34,0.35-10.03c-0.3-1.06-0.68-2.1-1.09-3.21c-0.74-2.02-1.5-4.12-1.79-6.39
		c-0.48-3.84,0.79-8.55,4.73-10.42c1.66-0.79,3.45-0.88,5.02-0.96c1.56-0.08,2.91-0.15,3.83-0.81c1.12-0.8,1.54-2.41,2.02-4.27
		c0.29-1.12,0.59-2.27,1.09-3.39c2.65-5.96,9.79-8.08,15.49-7.09c5.75,1,10.56,4.51,14.61,7.72c1.29,1.02,2.46,1.95,3.71,2.2
		c3.32,0.65,6.23-3.57,7.68-6.15c1.93-3.44,5.15-9.21,10.85-9.38c1.9-0.06,3.65,0.58,5.2,1.13c1.58,0.57,2.95,1.06,4.18,0.81
		c1.72-0.35,2.99-2.12,4.34-3.99c0.57-0.79,1.15-1.6,1.8-2.35c4.2-4.88,11.34-6.72,17.38-4.46c6.03,2.26,10.22,8.33,10.18,14.77
		c-0.01,2.54-0.64,4.93-1.24,7.24c-0.55,2.12-1.08,4.12-1.11,6.12c-0.04,2.15,1.18,4.64,2.82,5.8c0.89,0.62,1.73,0.77,2.58,0.44
		l0.26-0.08c1.5-0.35,2.21-2.88,2.1-7.52c-0.06-2.61,1-5.03,2.89-6.63c2.58-2.18,4.94-1.27,6.34-0.73c0.49,0.19,0.95,0.36,1.3,0.39
		c0.26,0.02,0.65,0,1.12-0.43c0.86-0.77,1.49-2.39,1.55-3.94c0.02-0.67,0.01-1.37-0.01-2.12c-0.06-2.43-0.13-5.18,1.4-7.57
		c0.94-1.46,2.29-2.47,3.61-3.38c4.42-3.05,9.3-5.86,15.02-5.64c1.95,0.07,3.82,0.56,5.42,1.41c6.08,3.21,6.52,9.29,6.9,14.65
		c0.29,4.01,0.56,7.8,3.12,9.87c2.29,1.86,5.48,1.69,9.17,1.49c2.31-0.12,4.69-0.25,7.02,0.15c6.47,1.11,6.3,7,6.16,11.73
		c-0.12,4.18-0.24,8.12,2.72,10.37c2.03,1.54,3.67,2.24,4.74,2c1.46-0.32,2.67-2.61,3.95-5.03c2.34-4.43,5.53-10.5,13.58-9.35
		l-0.57,3.96c-4.89-0.69-6.85,2.27-9.48,7.26c-1.65,3.12-3.35,6.34-6.62,7.07c-2.31,0.52-4.93-0.38-8.02-2.72
		c-4.6-3.49-4.44-9.14-4.3-13.67c0.17-5.62-0.17-7.21-2.84-7.67c-1.89-0.33-3.95-0.21-6.13-0.1c-4.14,0.22-8.42,0.45-11.91-2.38
		c-3.9-3.17-4.25-8.01-4.59-12.69c-0.36-4.95-0.66-9.23-4.78-11.4c-1.07-0.57-2.36-0.9-3.7-0.94c-4.78-0.18-9.02,2.45-12.6,4.93
		c-1.06,0.73-1.97,1.4-2.51,2.24c-0.87,1.36-0.82,3.28-0.77,5.32c0.02,0.77,0.04,1.56,0.01,2.36c-0.07,2.1-0.87,4.98-2.88,6.78
		c-1.18,1.06-2.59,1.56-4.09,1.44c-0.94-0.07-1.73-0.38-2.44-0.64c-1.28-0.49-1.58-0.57-2.33,0.06c-0.95,0.81-1.51,2.11-1.48,3.48
		c0.06,2.78,0.23,10.12-5.06,11.47c-2.06,0.74-4.25,0.4-6.18-0.96c-2.72-1.91-4.58-5.67-4.52-9.14c0.04-2.48,0.65-4.81,1.24-7.06
		c0.57-2.16,1.1-4.21,1.11-6.25c0.03-4.72-3.16-9.35-7.58-11c-4.42-1.65-9.87-0.26-12.94,3.32c-0.54,0.62-1.04,1.33-1.58,2.08
		c-1.66,2.31-3.54,4.92-6.8,5.58c-2.32,0.47-4.45-0.3-6.32-0.97c-1.33-0.48-2.6-0.93-3.73-0.9c-3.17,0.09-5.43,3.67-7.47,7.33
		c-3.4,6.09-7.64,8.97-11.94,8.12c-2.19-0.43-3.88-1.77-5.37-2.95c-3.71-2.94-8.02-6.11-12.85-6.95c-4.06-0.71-9.35,0.73-11.15,4.78
		c-0.36,0.82-0.61,1.77-0.87,2.78c-0.6,2.28-1.27,4.87-3.56,6.51c-1.87,1.34-4.04,1.45-5.95,1.55c-1.32,0.07-2.57,0.13-3.51,0.58
		c-2.03,0.96-2.78,3.9-2.48,6.3c0.23,1.83,0.89,3.63,1.58,5.53c0.41,1.12,0.83,2.28,1.17,3.48c1.32,4.61,1.13,9.13-0.52,12.72
		l-0.07,0.14c-1.34,2.84-4.26,4.41-7.42,3.98c-3.22-0.43-5.66-2.76-6.22-5.94c-1.35-7.69-4.18-12.31-8.63-14.12
		c-0.73-0.29-1.51-0.52-2.34-0.75c-1.22-0.34-2.48-0.7-3.72-1.33c-1.9-0.97-3.48-2.44-5.01-3.87c-2.55-2.38-4.25-3.8-6.25-3.46
		c-1.02,0.17-2.06,0.87-3.16,1.61c-1.42,0.96-3.02,2.04-5.04,2.28c-2.83,0.33-5.16-1.07-7.23-2.32c-0.7-0.42-1.37-0.82-2.02-1.14
		c-2.64-1.29-5.9-1.25-8.94,0.11c-3.05,1.36-5.25,3.76-6.05,6.59c-0.36,1.28-0.58,2.73-0.8,4.27c-0.65,4.42-1.38,9.43-6.21,10.99
		c-1.32,0.42-2.62,0.41-3.78,0.4c-0.82-0.01-1.59-0.02-2.25,0.13c-2.37,0.53-3.86,3.25-4.46,5.61c-0.33,1.29-0.51,2.62-0.7,4.04
		c-0.25,1.85-0.51,3.76-1.13,5.65c-1.4,4.29-4.77,7.92-9.24,9.97C51.88,237.81,49.31,238.36,46.81,238.36z"/>
</g>
</svg>
